<svg width="50" height="50" viewBox="0 0 50 50" fill="none" xmlns="http://www.w3.org/2000/svg">
<path d="M41.8123 13.2291H31.2498V16.1667H41.854L41.8123 13.2291ZM39.5832 33.4375C38.7819 33.9684 37.8356 34.2378 36.8748 34.2083C36.2389 34.2746 35.5961 34.2089 34.9866 34.0154C34.3772 33.8218 33.8143 33.5045 33.3332 33.0833C32.4455 32.0736 31.9827 30.7598 32.0415 29.4167H45.8332C45.9316 28.0178 45.8121 26.6122 45.479 25.25C45.1549 23.9545 44.5895 22.7318 43.8124 21.6458C43.0277 20.5944 42.0166 19.7329 40.854 19.125C39.5583 18.4888 38.1307 18.1676 36.6873 18.1875C35.3298 18.1787 33.9841 18.4407 32.729 18.9583C31.5798 19.4422 30.5386 20.1505 29.6665 21.0417C28.7965 21.9502 28.1228 23.0281 27.6873 24.2083C27.2201 25.4824 26.9871 26.8305 26.9998 28.1875C26.9775 29.5638 27.2033 30.9329 27.6665 32.2292C28.0612 33.4023 28.6843 34.4856 29.4998 35.4167C30.3455 36.3295 31.3848 37.0414 32.5415 37.5C33.8313 37.9914 35.2031 38.2318 36.5832 38.2083C38.5195 38.2687 40.4312 37.7618 42.0832 36.75C43.753 35.5656 44.9547 33.8331 45.479 31.8542H40.8749C40.6284 32.5086 40.1748 33.0646 39.5832 33.4375ZM32.4373 24.8542C32.5995 24.3347 32.8686 23.8551 33.2275 23.446C33.5863 23.0369 34.0268 22.7076 34.5207 22.4792C35.1752 22.1861 35.8871 22.0437 36.604 22.0625C37.122 22.0183 37.6434 22.0866 38.1324 22.2628C38.6215 22.439 39.0666 22.7189 39.4373 23.0833C40.1462 23.9493 40.6006 24.9951 40.7498 26.1042H32.104C32.1377 25.6808 32.2145 25.262 32.3332 24.8542H32.4373ZM21.4165 23.8542C22.4768 23.4126 23.3982 22.6928 24.0832 21.7708C24.7153 20.7928 25.0283 19.6427 24.979 18.4792C25.0183 17.4185 24.8115 16.3632 24.3748 15.3958C24.0067 14.5581 23.4158 13.8375 22.6665 13.3125C21.8733 12.7643 20.9706 12.3947 20.0207 12.2291C18.8975 11.9929 17.7517 11.8811 16.604 11.8958H4.1665V38.1042H16.8748C18.0345 38.1039 19.1895 37.9569 20.3123 37.6667C21.3757 37.3894 22.3834 36.9314 23.2915 36.3125C24.1719 35.7055 24.8877 34.8894 25.3748 33.9375C25.9172 32.8749 26.1823 31.6925 26.1457 30.5C26.1851 29.0224 25.7707 27.5681 24.9582 26.3333C24.0844 25.0915 22.7884 24.2102 21.3123 23.8542H21.4165ZM9.93734 16.375H15.3332C15.829 16.3726 16.324 16.4144 16.8123 16.5C17.2628 16.5644 17.6953 16.7204 18.0832 16.9583C18.4589 17.1708 18.7633 17.4898 18.9582 17.875C19.2014 18.3362 19.3165 18.8542 19.2915 19.375C19.3303 19.8234 19.2618 20.2746 19.0915 20.6912C18.9212 21.1079 18.6541 21.478 18.3123 21.7708C17.5668 22.2834 16.6746 22.5393 15.7707 22.5H9.93734V16.375ZM20.0207 31.875C19.805 32.2985 19.4817 32.6577 19.0832 32.9167C18.6671 33.1754 18.2087 33.3588 17.729 33.4583C17.1959 33.5783 16.6504 33.6342 16.104 33.625H9.85401V26.4375H16.104C17.1765 26.3905 18.2357 26.69 19.1248 27.2917C19.5265 27.6521 19.8377 28.1021 20.0331 28.6052C20.2286 29.1083 20.3028 29.6504 20.2498 30.1875C20.3039 30.7601 20.2255 31.3375 20.0207 31.875Z" fill="#444444"/>
</svg>
