<svg width="50" height="50" viewBox="0 0 50 50" fill="none" xmlns="http://www.w3.org/2000/svg">
<path d="M12.9585 16.1872C12.9585 16.1455 12.9793 16.083 12.9585 16.083V16.1872Z" fill="#444444"/>
<g clip-path="url(#clip0_507_19956)">
<path d="M19.9581 4.17584C22.0831 3.98834 24.2293 3.94634 26.3751 4.07134C28.1458 4.17551 29.979 4.34254 31.7081 4.80084C32.0831 4.88417 32.4379 5.00885 32.7921 5.13385C33.4794 5.40466 34.1873 5.82159 34.5206 6.50885C34.7705 7.02953 34.854 7.65449 34.9581 8.21686C35.0831 8.86269 35.1879 9.50917 35.2921 10.1758C35.3546 10.5508 35.4168 10.9259 35.6876 11.1758C35.9584 11.4257 36.3543 11.4669 36.6876 11.5919C37.7415 11.9638 38.2005 12.9307 38.4112 13.9629L38.6251 15.0509C38.9167 16.155 38.7497 17.2593 37.9581 18.1134C37.4791 18.634 36.8127 18.8631 36.1046 19.0089C35.9379 19.0297 35.7498 19.1339 35.6456 19.2589C35.5414 19.3839 35.4376 19.5509 35.4376 19.7384L35.0626 23.3634L34.2501 31.2589L33.5001 38.5089C33.4168 39.238 33.3539 39.9673 33.2706 40.6964C32.9998 43.2171 31.1669 44.8424 28.7296 45.3009C27.0838 45.5925 25.3956 45.5297 23.7081 45.5089C22.3957 45.4881 21.0827 45.4467 19.7911 45.2384C17.583 44.8841 15.7912 43.634 15.5411 41.3009L15.4161 40.0089L14.7286 33.3214L13.9161 25.4669L13.5206 21.6759C13.4581 21.0093 14.1248 20.5093 14.7081 20.4884C15.3956 20.4675 15.8331 21.0717 15.8956 21.6759C15.9164 21.7593 15.9161 21.9259 15.9161 21.9259L16.4581 27.0509L17.2911 34.9669L17.7286 39.2384C17.8328 40.3007 17.9376 41.5502 18.7706 42.3419C19.708 43.2376 21.2079 43.3419 22.4161 43.3419C23.5619 43.3419 24.6873 43.3839 25.8331 43.3839C26.8539 43.3839 27.8751 43.2586 28.8751 43.0294C29.9791 42.7794 30.7292 42.0924 30.9376 40.9884C31.0626 40.28 31.0831 39.5502 31.1456 38.8419C31.2289 38.1129 31.2918 37.4048 31.3751 36.6759C31.6459 34.0925 31.8963 31.5294 32.1671 28.9669L32.9171 21.6339L33.0421 20.4259C33.0629 20.3009 33.0417 20.1758 33.0001 20.0509C32.9585 19.926 32.8753 19.8217 32.7921 19.7384C32.7089 19.6552 32.6044 19.5925 32.4796 19.5509C32.3548 19.5093 32.2294 19.5089 32.1046 19.5089L30.8956 19.6339C24.7224 20.2123 18.4993 19.9534 12.3956 18.8634C11.0832 18.6342 10.1664 17.5713 10.0206 16.2589C9.93734 15.6548 10.1251 15.0091 10.2501 14.4259C10.3543 13.8425 10.4373 13.238 10.7081 12.6963C10.9581 12.1964 11.3751 11.7592 11.8751 11.4883C12.5 11.1551 13.1457 11.1127 13.8331 11.2169C14.3956 11.3002 14.9582 11.405 15.5206 11.4883C15.6872 11.53 15.854 11.5505 16.0206 11.5713C16.0621 11.5921 16.2485 11.6132 16.2911 11.6133C16.541 11.6342 16.7913 11.6755 17.0411 11.6963C19.4786 11.988 21.9373 12.1338 24.3956 12.1338C25.0206 12.1338 25.6251 12.1133 26.2501 12.1133C27.4584 12.0925 28.6668 12.03 29.8751 11.9258L31.6876 11.7383C31.9792 11.7175 32.2921 11.6755 32.6046 11.6338L32.7081 11.6133H32.8126C32.8751 11.5925 32.9379 11.5717 32.9796 11.5508C33.0213 11.5092 33.0838 11.4674 33.1046 11.4258C33.1254 11.3842 33.1671 11.3418 33.1671 11.2794V11.1133C33.0004 10.3634 32.8542 9.61328 32.6876 8.86334L32.6251 8.55084C32.5834 8.30091 32.5417 8.02997 32.4376 7.80084C32.1459 7.05084 31.2706 7.00917 30.5831 6.86334C30.1248 6.75919 29.6664 6.67518 29.2081 6.59186H29.0421C28.9796 6.57104 28.8959 6.57135 28.8126 6.57135L28.1876 6.50885C27.2084 6.40468 26.2494 6.34218 25.2911 6.32135C23.3121 6.25887 21.3326 6.32104 19.3536 6.52936C19.1246 6.55023 18.8951 6.61334 18.6661 6.61334C18.5413 6.6342 18.416 6.67584 18.2911 6.67584C17.9371 6.73831 17.5621 6.80055 17.2081 6.88385C17.1665 6.8839 17.1244 6.90473 17.1036 6.94635C17.0622 6.98791 17.0626 7.02979 17.0626 7.07135C17.0626 7.11291 17.0828 7.15479 17.1036 7.19635C17.1244 7.21716 17.1665 7.25874 17.2081 7.25885L18.4581 7.50885H18.6661L18.7081 7.55084H18.9161L19.5411 7.61334C19.9993 7.67582 20.4579 7.7175 20.9161 7.73834C21.9369 7.82167 22.9373 7.84185 23.9581 7.84186C24.9998 7.84186 26.0418 7.80084 27.0626 7.73834L28.4376 7.61334C28.6667 7.59251 28.8755 7.57101 29.1046 7.52936H29.1671C29.2709 7.50857 29.3542 7.48836 29.4581 7.48834C30.1248 7.38417 30.7088 7.63417 30.9171 8.30084C31.1043 8.86318 30.7084 9.67515 30.1046 9.75885C29.5839 9.84215 29.0627 9.90438 28.5421 9.96686C26.4379 10.1752 24.3123 10.2592 22.2081 10.1758C20.2915 10.1133 18.375 9.946 16.5001 9.52936C15.8126 9.40436 15.1661 9.17519 14.5411 8.90436C14.0622 8.69601 13.6038 8.3625 13.3331 7.90436C12.9585 7.25866 13.125 6.44656 13.6456 5.92584C14.0623 5.48834 14.6251 5.25917 15.1876 5.05084C16.6875 4.48839 18.3749 4.32166 19.9581 4.17584ZM24.3595 42.9474C24.3782 42.9567 24.3928 42.966 24.3956 42.9679H24.3751C24.3646 42.9575 24.3487 42.9473 24.3331 42.9396L24.3595 42.9474ZM24.3546 42.7179H24.3126C24.3542 42.6762 24.3755 42.6349 24.4171 42.6349C24.3971 42.6548 24.3578 42.7131 24.3546 42.7179ZM29.2501 22.1974C30.0834 22.1974 30.8129 22.3644 31.5421 22.6144L29.9171 39.8849C29.8546 40.5307 29.5623 41.1554 29.0831 41.5929C28.604 42.0303 27.9584 42.2804 27.3126 42.2804C27.2917 42.2813 24.9755 42.3849 24.2081 42.3849C23.4993 42.3848 21.3331 42.2804 21.3331 42.2804C20.6666 42.2803 20.0417 42.0303 19.5626 41.5929C19.0836 41.1554 18.7921 40.5306 18.7296 39.8849L17.2091 24.2599C18.1047 24.5098 19.0211 24.6349 19.9376 24.6349C22.1457 24.6349 23.8332 23.9057 25.3331 23.2599C26.6664 22.6974 27.8127 22.1974 29.2501 22.1974ZM15.8956 13.9883C15.0624 13.8633 14.0834 13.5092 13.2501 13.6133C12.7084 13.6758 12.5209 14.28 12.4376 14.7384C12.3751 15.0925 12.2706 15.5718 12.3331 15.9884C12.3747 16.1756 12.4165 16.342 12.5411 16.4669C12.7493 16.6751 13.0621 16.7377 13.3536 16.7794C16.3536 17.2169 19.354 17.5502 22.3956 17.6544C26.6455 17.8002 30.8957 17.4884 35.0831 16.8634C35.4581 16.8217 35.8331 16.6961 36.0831 16.4669V16.4044C36.2497 16.2378 36.3751 16.0293 36.3751 15.7794C36.4375 15.2378 36.3962 14.5709 36.1046 14.0919C35.688 13.3839 34.9169 13.6133 34.2296 13.7383C33.4588 13.8842 32.6873 14.0092 31.8956 14.1134C27.604 14.6967 23.2286 14.7592 18.9161 14.3634C17.8954 14.2592 16.8955 14.1342 15.8956 13.9883ZM38.4171 13.9883C38.4154 13.9799 38.413 13.9714 38.4112 13.9629L38.3956 13.8838L38.4171 13.9883Z" fill="#444444"/>
</g>
<defs>
<clipPath id="clip0_507_19956">
<rect width="29" height="42" fill="white" transform="translate(10 4)"/>
</clipPath>
</defs>
</svg>
