<svg width="50" height="50" viewBox="0 0 50 50" fill="none" xmlns="http://www.w3.org/2000/svg">
<path d="M39.021 11.271L36.3543 13.3543L25.0001 21.7918L13.646 13.2709L10.9793 11.1876C10.3511 10.6679 9.5842 10.344 8.77366 10.2558C7.96312 10.1677 7.14453 10.3194 6.41933 10.692C5.69412 11.0645 5.09416 11.6417 4.69377 12.3519C4.29338 13.0622 4.11016 13.8743 4.16681 14.6876V38.8334C4.16681 39.5849 4.46532 40.3056 4.99667 40.8369C5.52803 41.3683 6.2487 41.6668 7.00014 41.6668H13.646V25.5834L25.0001 34.1043L36.3543 25.5834V41.6668H43.0001C43.7516 41.6668 44.4722 41.3683 45.0036 40.8369C45.535 40.3056 45.8335 39.5849 45.8335 38.8334V14.6876C45.8726 13.8813 45.6766 13.081 45.2694 12.3839C44.8622 11.6869 44.2612 11.1231 43.5396 10.7612C42.818 10.3993 42.0068 10.2548 41.2046 10.3453C40.4024 10.4358 39.6438 10.7574 39.021 11.271Z" fill="#444444"/>
</svg>
