<svg width="50" height="50" viewBox="0 0 50 50" fill="none" xmlns="http://www.w3.org/2000/svg">
<g clip-path="url(#clip0_507_19962)">
<path d="M32.751 5C39.4211 5.00027 44.8338 10.4129 44.834 17.083V33.75C44.834 40.4203 39.4212 45.8327 32.751 45.833H16.084C9.41366 45.8328 4 40.4204 4 33.75V17.083C4.00018 10.4128 9.41377 5.00018 16.084 5H32.751ZM16.084 8.33301C11.2547 8.33318 7.33416 12.2537 7.33398 17.083V33.75C7.33399 38.5794 11.2546 42.4998 16.084 42.5H32.751C37.5803 42.4997 41.501 38.5794 41.501 33.75V17.083C41.5008 12.2538 37.5802 8.33327 32.751 8.33301H16.084ZM24.418 15.417C29.9422 15.4175 34.418 19.8927 34.418 25.417C34.418 30.9413 29.9422 35.4165 24.418 35.417C18.8933 35.417 14.418 30.9416 14.418 25.417C14.418 19.8924 18.8933 15.417 24.418 15.417ZM24.418 18.75C20.7343 18.75 17.751 21.7333 17.751 25.417C17.751 29.1007 20.7343 32.084 24.418 32.084C28.1012 32.0835 31.084 29.1004 31.084 25.417C31.084 21.7336 28.1012 18.7505 24.418 18.75ZM34.834 11.875C36.5596 11.8753 37.959 13.2743 37.959 15C37.959 16.7257 36.5596 18.1247 34.834 18.125C33.1081 18.125 31.709 16.7259 31.709 15C31.709 13.2741 33.1081 11.875 34.834 11.875Z" fill="#444444"/>
</g>
<defs>
<clipPath id="clip0_507_19962">
<rect width="41" height="41" fill="white" transform="translate(4 5)"/>
</clipPath>
</defs>
</svg>
