<svg width="50" height="50" viewBox="0 0 50 50" fill="none" xmlns="http://www.w3.org/2000/svg">
<path fill-rule="evenodd" clip-rule="evenodd" d="M24.9998 4.16699C13.4936 4.16699 4.1665 13.4941 4.1665 25.0003C4.1665 28.9378 5.26025 32.6253 7.16234 35.767L5.304 42.0837C5.1973 42.4463 5.19028 42.8311 5.28368 43.1974C5.37707 43.5637 5.56744 43.8981 5.83475 44.1654C6.10207 44.4327 6.43646 44.6231 6.80279 44.7165C7.16911 44.8099 7.55383 44.8029 7.9165 44.6962L14.2332 42.8378C17.4805 44.8023 21.2045 45.8385 24.9998 45.8337C36.5061 45.8337 45.8332 36.5066 45.8332 25.0003C45.8332 13.4941 36.5061 4.16699 24.9998 4.16699ZM20.2873 29.7149C24.5019 33.9274 28.5248 34.4837 29.9457 34.5357C32.1061 34.6149 34.2102 32.9649 35.029 31.0503C35.1315 30.812 35.1685 30.5506 35.1363 30.2931C35.1041 30.0357 35.0037 29.7915 34.8457 29.5857C33.704 28.1274 32.1602 27.0795 30.6519 26.0378C30.3372 25.8196 29.95 25.7319 29.5719 25.7933C29.1939 25.8547 28.8543 26.0604 28.6248 26.367L27.3748 28.2732C27.3088 28.3753 27.2064 28.4485 27.0884 28.4779C26.9704 28.5073 26.8456 28.4907 26.7394 28.4316C25.8915 27.9462 24.6561 27.1212 23.7686 26.2337C22.8811 25.3462 22.1061 24.167 21.6707 23.3732C21.618 23.2721 21.6031 23.1555 21.6287 23.0444C21.6543 22.9333 21.7187 22.8349 21.8102 22.767L23.7352 21.3378C24.0108 21.0995 24.1886 20.7678 24.2348 20.4065C24.2809 20.0451 24.1921 19.6794 23.9852 19.3795C23.0519 18.0128 21.9644 16.2753 20.3873 15.1232C20.1834 14.9767 19.945 14.8853 19.6954 14.8579C19.4457 14.8306 19.1932 14.8681 18.9623 14.967C17.0457 15.7878 15.3873 17.892 15.4665 20.0566C15.5186 21.4774 16.0748 25.5003 20.2873 29.7149Z" fill="#444444"/>
</svg>
